<svg xmlns="http://www.w3.org/2000/svg" viewBox="0 0 612 612">
	<g sodipodi:docname="rootstrap_logo.svg" inkscape:version="0.48.1 r9760" xmlns:svg="http://www.w3.org/2000/svg" xmlns:sodipodi="http://sodipodi.sourceforge.net/DTD/sodipodi-0.dtd" xmlns:rdf="http://www.w3.org/1999/02/22-rdf-syntax-ns#" xmlns:dc="http://purl.org/dc/elements/1.1/" xmlns:cc="http://creativecommons.org/ns#" xmlns:inkscape="http://www.inkscape.org/namespaces/inkscape">
    	<path fill="#563D7C" d="M612 510c0 56.1-45.9 102-102 102H102C45.9 612 0 566.1 0 510V102C0 45.9 45.9 0 102 0h408c56.1 0 102 45.9 102 102v408z"/>
    	<path fill="#FFF" d="M145.8,484.2V127.8h151.5c38.1,0,65.8,3.2,83,9.6c17.3,6.4,31.1,17.8,41.5,34.2c10.4,16.4,15.6,35.1,15.6,56.2 c0,26.7-7.9,48.8-23.6,66.3c-15.7,17.4-39.2,28.4-70.5,32.9c15.6,9.1,28.4,19,38.5,29.9c10.1,10.9,23.8,30.2,41,57.9l43.5,69.5 h-86.1l-52-77.6c-18.5-27.7-31.1-45.2-37.9-52.4c-6.8-7.2-14-12.2-21.6-14.8c-7.6-2.7-19.7-4-36.2-4h-14.6v148.8H145.8z M217.7,278.5H271c34.5,0,56.1-1.5,64.7-4.4c8.6-2.9,15.3-7.9,20.2-15.1c4.9-7.1,7.3-16,7.3-26.7c0-12-3.2-21.7-9.6-29.1 c-6.4-7.4-15.4-12-27.1-14c-5.8-0.8-23.3-1.2-52.5-1.2h-56.2V278.5z"/>
	</g>
</svg>
